<?xml version="1.0" encoding="UTF-8" standalone="no"?>
<svg
   xmlns:dc="http://purl.org/dc/elements/1.1/"
   xmlns:cc="http://creativecommons.org/ns#"
   xmlns:rdf="http://www.w3.org/1999/02/22-rdf-syntax-ns#"
   xmlns:svg="http://www.w3.org/2000/svg"
   xmlns="http://www.w3.org/2000/svg"
   xmlns:xlink="http://www.w3.org/1999/xlink"
   xmlns:sodipodi="http://sodipodi.sourceforge.net/DTD/sodipodi-0.dtd"
   xmlns:inkscape="http://www.inkscape.org/namespaces/inkscape"
   height="192"
   viewBox="0 0 192 192"
   width="192"
   id="svg4136"
   version="1.1"
   inkscape:version="0.91 r13725"
   sodipodi:docname="ic_launcher.svg"
   style="fill:#000000"
   inkscape:export-filename="C:\Users\Adam\Desktop\ic_launcher.png"
   inkscape:export-xdpi="90"
   inkscape:export-ydpi="90">
  <metadata
     id="metadata4146">
    <rdf:RDF>
      <cc:Work
         rdf:about="">
        <dc:format>image/svg+xml</dc:format>
        <dc:type
           rdf:resource="http://purl.org/dc/dcmitype/StillImage" />
        <dc:title />
      </cc:Work>
    </rdf:RDF>
  </metadata>
  <defs
     id="defs4144">
    <linearGradient
       inkscape:collect="always"
       id="linearGradient5439">
      <stop
         style="stop-color:#ffffff;stop-opacity:0.1019607857"
         offset="0"
         id="stop5441" />
      <stop
         style="stop-color:#ffffff;stop-opacity:0;"
         offset="1"
         id="stop5443" />
    </linearGradient>
    <linearGradient
       inkscape:collect="always"
       id="linearGradient5255">
      <stop
         style="stop-color:#000000;stop-opacity:0.200000003"
         offset="0"
         id="stop5257" />
      <stop
         style="stop-color:#000000;stop-opacity:0;"
         offset="1"
         id="stop5259" />
    </linearGradient>
    <filter
       style="color-interpolation-filters:sRGB;"
       inkscape:label="Drop Shadow"
       id="filter5009"
       x="-1"
       y="-1"
       width="3"
       height="3">
      <feFlood
         flood-opacity="0.2"
         flood-color="rgb(0,0,0)"
         result="flood"
         id="feFlood5011" />
      <feComposite
         in="flood"
         in2="SourceGraphic"
         operator="in"
         result="composite1"
         id="feComposite5013" />
      <feGaussianBlur
         in="composite1"
         stdDeviation="4"
         result="blur"
         id="feGaussianBlur5015" />
      <feOffset
         dx="-1.97065e-015"
         dy="4"
         result="offset"
         id="feOffset5017" />
      <feComposite
         in="SourceGraphic"
         in2="offset"
         operator="over"
         result="composite2"
         id="feComposite5019" />
    </filter>
    <linearGradient
       inkscape:collect="always"
       xlink:href="#linearGradient5255"
       id="linearGradient5261"
       x1="102.8560333"
       y1="102.8472443"
       x2="180.0009766"
       y2="179.9921875"
       gradientUnits="userSpaceOnUse" />
    <filter
       style="color-interpolation-filters:sRGB;"
       inkscape:label="Drop Shadow"
       id="filter5412"
       x="-1"
       y="-1"
       width="3"
       height="3">
      <feFlood
         flood-opacity="0.2"
         flood-color="rgb(0,0,0)"
         result="flood"
         id="feFlood5414" />
      <feComposite
         in="flood"
         in2="SourceGraphic"
         operator="in"
         result="composite1"
         id="feComposite5416" />
      <feGaussianBlur
         in="composite1"
         stdDeviation="4"
         result="blur"
         id="feGaussianBlur5418" />
      <feOffset
         dx="-1.97065e-015"
         dy="4"
         result="offset"
         id="feOffset5420" />
      <feComposite
         in="SourceGraphic"
         in2="offset"
         operator="over"
         result="composite2"
         id="feComposite5422" />
    </filter>
    <radialGradient
       inkscape:collect="always"
       xlink:href="#linearGradient5439"
       id="radialGradient5445"
       cx="12.07950497"
       cy="12.03531075"
       fx="12.07950497"
       fy="12.03531075"
       r="84.00000006"
       gradientUnits="userSpaceOnUse"
       gradientTransform="matrix(0,1.99084233,-1.99752566,0,36.120347,-12.01307899)" />
  </defs>
  <sodipodi:namedview
     pagecolor="#ffffff"
     bordercolor="#666666"
     borderopacity="1"
     objecttolerance="10"
     gridtolerance="10"
     guidetolerance="10"
     inkscape:pageopacity="0"
     inkscape:pageshadow="2"
     inkscape:window-width="1858"
     inkscape:window-height="1177"
     id="namedview4142"
     showgrid="false"
     showguides="true"
     fit-margin-top="12"
     fit-margin-left="12"
     fit-margin-right="12"
     fit-margin-bottom="12"
     inkscape:zoom="2.828427125"
     inkscape:cx="-9.890965398"
     inkscape:cy="74.69757274"
     inkscape:window-x="54"
     inkscape:window-y="-8"
     inkscape:window-maximized="1"
     inkscape:current-layer="svg4136" />
  <path
     inkscape:connector-curvature="0"
     style="fill:#0d47a1;fill-opacity:1;stroke:none;stroke-width:20.8429698944;stroke-linecap:round;stroke-linejoin:round;stroke-miterlimit:4;stroke-dasharray:none;stroke-opacity:1"
     d="M 25.89583333,12.00000002 A 13.89670266,13.89670266 0 0 0 12,25.89583332 L 12,166.10416 A 13.89670266,13.89670266 0 0 0 25.89583338,180 L 166.10416,180 A 13.89670266,13.89670266 0 0 0 180,166.10416 l 10e-8,-140.20832671 A 13.89670266,13.89670266 0 0 0 166.10416,12.00000006 l -140.20832667,-4e-8 z"
     id="rect4265" />
  <path
     style="fill:#ffffff;fill-opacity:0.1294117647;stroke:none;stroke-width:20.8429698944;stroke-linecap:round;stroke-linejoin:round;stroke-miterlimit:4;stroke-dasharray:none;stroke-opacity:1;"
     d="M 25.89648441,11.99999998 A 13.89670266,13.89670264 0 0 0 12.00000004,25.89648436 l 0,4 A 13.89670266,13.89670266 0 0 1 25.89648443,15.99999998 l 140.20703137,3e-8 a 13.89670266,13.89670266 0 0 1 13.8964843,13.89648435 l 0,-3.99999997 A 13.89670266,13.89670264 0 0 0 166.1035158,11.99999996 l -140.20703139,3e-8 z"
     id="rect4265-2"
     inkscape:connector-curvature="0" />
  <path
     style="fill:#000000;fill-opacity:0.1294117647;stroke:none;stroke-width:20.8429698944;stroke-linecap:round;stroke-linejoin:round;stroke-miterlimit:4;stroke-dasharray:none;stroke-opacity:1;"
     d="m 12.00000004,162.1035156 0,4 A 13.89670266,13.89670266 0 0 0 25.89648439,180 l 140.20703131,0 a 13.89670266,13.89670266 0 0 0 13.8964844,-13.8964844 l 0,-4 A 13.89670266,13.89670266 0 0 1 166.1035157,176 L 25.89648441,176 A 13.89670266,13.89670266 0 0 1 12.00000004,162.1035156 Z"
     id="rect4265-4"
     inkscape:connector-curvature="0" />
  <path
     inkscape:connector-curvature="0"
     style="fill:url(#linearGradient5261);fill-opacity:1;stroke:none;stroke-width:20.8429698944;stroke-linecap:round;stroke-linejoin:round;stroke-miterlimit:4;stroke-dasharray:none;stroke-opacity:1;"
     d="M 136.9082032,55.4472656 55.64257818,136.7109375 98.93164068,180 l 67.17187502,0 a 13.89670266,13.89670266 0 0 0 13.8964844,-13.8945313 l 0,-67.5664062 -43.0917969,-43.0917969 z"
     id="rect4265-48" />
  <path
     style="color:#000000;font-style:normal;font-variant:normal;font-weight:normal;font-stretch:normal;font-size:medium;line-height:normal;font-family:sans-serif;text-indent:0;text-align:start;text-decoration:none;text-decoration-line:none;text-decoration-style:solid;text-decoration-color:#000000;letter-spacing:normal;word-spacing:normal;text-transform:none;direction:ltr;block-progression:tb;writing-mode:lr-tb;baseline-shift:baseline;text-anchor:start;white-space:normal;clip-rule:nonzero;display:inline;overflow:visible;visibility:visible;opacity:1;isolation:auto;mix-blend-mode:normal;color-interpolation:sRGB;color-interpolation-filters:linearRGB;solid-color:#000000;solid-opacity:1;fill:#c0c0c0;fill-opacity:1;fill-rule:evenodd;stroke:none;stroke-width:8;stroke-linecap:butt;stroke-linejoin:miter;stroke-miterlimit:4;stroke-dasharray:none;stroke-dashoffset:0;stroke-opacity:1;color-rendering:auto;image-rendering:auto;shape-rendering:auto;text-rendering:auto;enable-background:accumulate;filter:url(#filter5009)"
     d="m 113.8755598,108.0325261 -5.65625,5.65625 41.4277344,41.4277344 5.65625,-5.65625 -41.4277344,-41.4277344 z"
     id="path4206"
     inkscape:connector-curvature="0" />
  <path
     style="color:#000000;font-style:normal;font-variant:normal;font-weight:normal;font-stretch:normal;font-size:medium;line-height:normal;font-family:sans-serif;text-indent:0;text-align:start;text-decoration:none;text-decoration-line:none;text-decoration-style:solid;text-decoration-color:#000000;letter-spacing:normal;word-spacing:normal;text-transform:none;direction:ltr;block-progression:tb;writing-mode:lr-tb;baseline-shift:baseline;text-anchor:start;white-space:normal;clip-rule:nonzero;display:inline;overflow:visible;visibility:visible;opacity:1;isolation:auto;mix-blend-mode:normal;color-interpolation:sRGB;color-interpolation-filters:linearRGB;solid-color:#000000;solid-opacity:1;fill:#000000;fill-opacity:1;fill-rule:evenodd;stroke:none;stroke-width:12;stroke-linecap:round;stroke-linejoin:miter;stroke-miterlimit:4;stroke-dasharray:none;stroke-dashoffset:0;stroke-opacity:1;color-rendering:auto;image-rendering:auto;shape-rendering:auto;text-rendering:auto;enable-background:accumulate;filter:url(#filter5412)"
     d="m 132.268138,126.0833074 a 6.0006,6.0006 0 0 0 -4.1796876,10.3027343 l 30.6699219,30.671875 a 6.000740147,6.000740147 0 1 0 8.4863281,-8.4863281 l -30.671875,-30.6699219 a 6.0006,6.0006 0 0 0 -4.3046874,-1.8183593 z"
     id="path4204"
     inkscape:connector-curvature="0" />
  <path
     style="color:#000000;font-style:normal;font-variant:normal;font-weight:normal;font-stretch:normal;font-size:medium;line-height:normal;font-family:sans-serif;text-indent:0;text-align:start;text-decoration:none;text-decoration-line:none;text-decoration-style:solid;text-decoration-color:#000000;letter-spacing:normal;word-spacing:normal;text-transform:none;direction:ltr;block-progression:tb;writing-mode:lr-tb;baseline-shift:baseline;text-anchor:start;white-space:normal;clip-rule:nonzero;display:inline;overflow:visible;visibility:visible;opacity:1;isolation:auto;mix-blend-mode:normal;color-interpolation:sRGB;color-interpolation-filters:linearRGB;solid-color:#000000;solid-opacity:1;fill:#f57c00;fill-opacity:1;fill-rule:evenodd;stroke:none;stroke-width:7.7676057816;stroke-linecap:round;stroke-linejoin:miter;stroke-miterlimit:4;stroke-dasharray:none;stroke-dashoffset:0;stroke-opacity:1;color-rendering:auto;image-rendering:auto;shape-rendering:auto;text-rendering:auto;enable-background:accumulate;filter:url(#filter5009)"
     d="m 49.7023078,49.56938574 a 3.884191271,3.884191271 0 0 0 0.081483,5.48974504 l 2.39339073,2.39339073 -10.8054755,10.8054755 a 1.841942546,1.841942546 0 0 0 0,2.60469412 L 100.147195,129.6381801 a 1.841942546,1.841942546 0 0 0 2.6046942,0 l 27.0730747,-27.0730746 a 1.841942546,1.841942546 0 0 0 0,-2.60469418 L 71.04947486,41.18492228 a 1.841942546,1.841942546 0 0 0 -2.60469414,1e-8 L 57.66968863,51.96001438 55.27629791,49.56662366 a 3.884191271,3.884191271 0 0 0 -5.57399011,0.002762 z"
     id="path4210"
     inkscape:connector-curvature="0" />
  <rect
     style="fill:#606060;fill-opacity:1;stroke:none;stroke-opacity:1;"
     id="rect4148"
     width="62.14084244"
     height="98.05725098"
     x="89.00636292"
     y="-49.16070175"
     transform="matrix(0.7071067812,0.7071067812,-0.7071067812,0.7071067812,0,0)" />
  <path
     style="color:#000000;font-style:normal;font-variant:normal;font-weight:normal;font-stretch:normal;font-size:medium;line-height:normal;font-family:sans-serif;text-indent:0;text-align:start;text-decoration:none;text-decoration-line:none;text-decoration-style:solid;text-decoration-color:#000000;letter-spacing:normal;word-spacing:normal;text-transform:none;direction:ltr;block-progression:tb;writing-mode:lr-tb;baseline-shift:baseline;text-anchor:start;white-space:normal;clip-rule:nonzero;display:inline;overflow:visible;visibility:visible;opacity:1;isolation:auto;mix-blend-mode:normal;color-interpolation:sRGB;color-interpolation-filters:linearRGB;solid-color:#000000;solid-opacity:1;fill-opacity:1;fill-rule:nonzero;stroke:none;stroke-width:1;stroke-linecap:butt;stroke-linejoin:miter;stroke-miterlimit:4;stroke-dasharray:none;stroke-dashoffset:0;stroke-opacity:1;color-rendering:auto;image-rendering:auto;shape-rendering:auto;text-rendering:auto;enable-background:accumulate;filter:url(#filter5009)"
     d="m 99.65712064,22.70750967 c -2.7832938,-5.17e-6 -5.5673818,1.0556631 -7.6777344,3.16601562 L 26.06922996,91.78368155 c -4.22070501,4.22070506 -4.22071873,11.13279695 0,15.35351565 l 36.6171875,36.6171875 c 4.22071867,4.2207188 11.13281068,4.220705 15.35351558,0 L 143.9500894,77.84422842 c 4.220705,-4.22070504 4.183419,-11.09783027 -0.035156,-15.31640625 l -36.5800781,-36.65429688 -0.00195,0 c -2.1103593,-2.11035933 -4.8924874,-3.16601045 -7.67578126,-3.16601562 z M 92.33290184,41.58055655 128.2430581,77.49071279 77.68641744,128.0473535 41.77626122,92.13719717 92.33290184,41.58055655 Z"
     id="path4161"
     inkscape:connector-curvature="0" />
  <path
     inkscape:connector-curvature="0"
     style="fill:url(#radialGradient5445);fill-opacity:1;stroke:none;stroke-width:20.8429698944;stroke-linecap:round;stroke-linejoin:round;stroke-miterlimit:4;stroke-dasharray:none;stroke-opacity:1"
     d="m 25.89583332,12.00000001 a 13.89670266,13.89670266 0 0 0 -13.89583335,13.8958333 l 0,140.20832669 A 13.89670266,13.89670266 0 0 0 25.89583332,180 L 166.10416,180 A 13.89670266,13.89670266 0 0 0 180,166.10416 l 10e-8,-140.20832672 A 13.89670266,13.89670266 0 0 0 166.10416,12.00000005 l -140.20832668,-4e-8 z"
     id="rect4265-6" />
</svg>
